<svg id="visual" viewBox="0 0 900 600" width="900" height="600" xmlns="http://www.w3.org/2000/svg" xmlns:xlink="http://www.w3.org/1999/xlink" version="1.1"><path d="M0 57L18.8 59.5C37.7 62 75.3 67 112.8 73.8C150.3 80.7 187.7 89.3 225.2 95.5C262.7 101.7 300.3 105.3 337.8 99.7C375.3 94 412.7 79 450.2 70.7C487.7 62.3 525.3 60.7 562.8 68.3C600.3 76 637.7 93 675.2 92.7C712.7 92.3 750.3 74.7 787.8 70C825.3 65.3 862.7 73.7 881.3 77.8L900 82L900 0L881.3 0C862.7 0 825.3 0 787.8 0C750.3 0 712.7 0 675.2 0C637.7 0 600.3 0 562.8 0C525.3 0 487.7 0 450.2 0C412.7 0 375.3 0 337.8 0C300.3 0 262.7 0 225.2 0C187.7 0 150.3 0 112.8 0C75.3 0 37.7 0 18.8 0L0 0Z" fill="#1e1e2b" stroke-linecap="round" stroke-linejoin="miter"></path></svg>