<svg id="visual" viewBox="0 0 900 600" width="900" height="600" xmlns="http://www.w3.org/2000/svg" xmlns:xlink="http://www.w3.org/1999/xlink" version="1.1"><path d="M0 541L18.8 538.5C37.7 536 75.3 531 112.8 524.2C150.3 517.3 187.7 508.7 225.2 502.5C262.7 496.3 300.3 492.7 337.8 498.3C375.3 504 412.7 519 450.2 527.3C487.7 535.7 525.3 537.3 562.8 529.7C600.3 522 637.7 505 675.2 505.3C712.7 505.7 750.3 523.3 787.8 528C825.3 532.7 862.7 524.3 881.3 520.2L900 516L900 601L881.3 601C862.7 601 825.3 601 787.8 601C750.3 601 712.7 601 675.2 601C637.7 601 600.3 601 562.8 601C525.3 601 487.7 601 450.2 601C412.7 601 375.3 601 337.8 601C300.3 601 262.7 601 225.2 601C187.7 601 150.3 601 112.8 601C75.3 601 37.7 601 18.8 601L0 601Z" fill="#1e1e2b" stroke-linecap="round" stroke-linejoin="miter"></path></svg>